<svg xmlns="http://www.w3.org/2000/svg" width="81.999" height="45.077" viewBox="0 0 81.999 45.077">
  <g id="Leibniz-HKI_blue" transform="translate(-74.4 -74.4)">
    <path id="Pfad_31" data-name="Pfad 31" d="M74.4,74.4h6.043V90.534h9.368v5.378H74.4Z" fill="#00bce3"/>
    <path id="Pfad_32" data-name="Pfad 32" d="M133.2,74.4h15.7v5.118h-9.657v2.92h8.038v4.713h-8.038v3.354h9.946v5.378H133.2Z" transform="translate(-41.799)" fill="#00bce3"/>
    <path id="Pfad_33" data-name="Pfad 33" d="M195.6,74.4h6.014V95.912H195.6Z" transform="translate(-86.156)" fill="#00bce3"/>
    <path id="Pfad_34" data-name="Pfad 34" d="M225,74.4h10.669a7.231,7.231,0,0,1,4.626,1.388,5.361,5.361,0,0,1,1.966,4.25,4.086,4.086,0,0,1-2.573,4.135v.087a5.206,5.206,0,0,1,3.556,5.176,6.119,6.119,0,0,1-2.371,5.147,8.25,8.25,0,0,1-4.973,1.359H225Zm9.657,8.356c1.157,0,1.937-.578,1.937-1.706a1.744,1.744,0,0,0-1.966-1.764h-3.7v3.5h3.73Zm.549,8.212a2.1,2.1,0,1,0-.029-4.193h-4.25v4.193Z" transform="translate(-107.056)" fill="#00bce3"/>
    <path id="Pfad_35" data-name="Pfad 35" d="M293.3,74.4h6.043l6.766,12.086h.058V74.4h5.841V95.912h-6.245L299.2,83.739h-.058V95.912H293.3Z" transform="translate(-155.607)" fill="#00bce3"/>
    <path id="Pfad_36" data-name="Pfad 36" d="M167.7,211.7h6.043v5.378H167.7Z" transform="translate(-66.323 -97.601)" fill="#00bce3"/>
    <path id="Pfad_37" data-name="Pfad 37" d="M167.7,155.9h6.043v5.378H167.7Z" transform="translate(-66.323 -57.935)" fill="#00bce3"/>
    <path id="Pfad_38" data-name="Pfad 38" d="M74.4,155.9h6.043v21.512H74.4Z" transform="translate(0 -57.935)" fill="#00bce3"/>
    <path id="Pfad_39" data-name="Pfad 39" d="M101.6,172.236l7.691-9.252a23.36,23.36,0,0,1,1.648-1.735l-.145-.087a12.844,12.844,0,0,1-1.822.116H101.6V155.9h17v4.713l-7.633,9.195a29.5,29.5,0,0,1-2.111,2.255v.087s1.157-.116,2.429-.116h7.4v5.378H101.629Z" transform="translate(-19.335 -57.935)" fill="#00bce3"/>
    <path id="Pfad_40" data-name="Pfad 40" d="M195.6,155.9h6.043v7.894h5.609V155.9h6.014v21.512h-6.014V169h-5.609v8.414H195.6Z" transform="translate(-86.156 -57.935)" fill="#0047bb"/>
    <path id="Pfad_41" data-name="Pfad 41" d="M265.3,155.9h6.014v7.055l6.216-7.055h6.91l-7.691,8.674,8.125,12.838h-7l-5.233-8.5-1.33,1.561v6.939H265.3V155.9Z" transform="translate(-135.703 -57.935)" fill="#0047bb"/>
    <path id="Pfad_42" data-name="Pfad 42" d="M337.1,155.9h6.043v21.512H337.1Z" transform="translate(-186.743 -57.935)" fill="#0047bb"/>
  </g>
<script xmlns="" id="bw-fido2-page-script"/></svg>